<svg width="40" height="40" viewBox="0 0 40 40" fill="none" xmlns="http://www.w3.org/2000/svg">
<rect width="40" height="40" rx="20" fill="#F0F2F5"/>
<path d="M16.5 27H16C12 27 10 26 10 21V16C10 12 12 10 16 10H24C28 10 30 12 30 16V21C30 25 28 27 24 27H23.5C23.19 27 22.89 27.15 22.7 27.4L21.2 29.4C20.54 30.28 19.46 30.28 18.8 29.4L17.3 27.4C17.14 27.18 16.77 27 16.5 27Z" stroke="black" stroke-width="1.5" stroke-miterlimit="10" stroke-linecap="round" stroke-linejoin="round"/>
<path d="M15 16H25" stroke="black" stroke-width="1.5" stroke-linecap="round" stroke-linejoin="round"/>
<path d="M15 21H21" stroke="black" stroke-width="1.5" stroke-linecap="round" stroke-linejoin="round"/>
</svg>
