<svg width="40" height="41" viewBox="0 0 40 41" fill="none" xmlns="http://www.w3.org/2000/svg">
<g clip-path="url(#clip0_362_4678)">
<path d="M40 20.1748C40 9.1291 31.0457 0.174805 20 0.174805C8.9543 0.174805 0 9.1291 0 20.1748C0 30.1572 7.31367 38.4314 16.875 39.9318V25.9561H11.7969V20.1748H16.875V15.7686C16.875 10.7561 19.8609 7.98731 24.4293 7.98731C26.6168 7.98731 28.9062 8.37793 28.9062 8.37793V13.2998H26.3844C23.9 13.2998 23.125 14.8416 23.125 16.4248V20.1748H28.6719L27.7852 25.9561H23.125V39.9318C32.6863 38.4314 40 30.1572 40 20.1748Z" fill="#1877F2"/>
<path d="M27.7852 25.9561L28.6719 20.1748H23.125V16.4248C23.125 14.8432 23.9 13.2998 26.3844 13.2998H28.9062V8.37793C28.9062 8.37793 26.6176 7.9873 24.4293 7.9873C19.8609 7.9873 16.875 10.7561 16.875 15.7686V20.1748H11.7969V25.9561H16.875V39.9318C18.9457 40.2558 21.0543 40.2558 23.125 39.9318V25.9561H27.7852Z" fill="white"/>
</g>
<defs>
<clipPath id="clip0_362_4678">
<rect width="40" height="40" fill="white" transform="translate(0 0.174805)"/>
</clipPath>
</defs>
</svg>
