<svg width="25" height="25" viewBox="0 0 25 25" fill="none" xmlns="http://www.w3.org/2000/svg">
<g clip-path="url(#clip0_59_1268)">
<path fill-rule="evenodd" clip-rule="evenodd" d="M3.84664 4.69971C3.68341 4.84119 3.58911 5.04619 3.58789 5.26221V21.0122C3.58789 21.4264 3.92368 21.7622 4.33789 21.7622C4.7521 21.7622 5.08789 21.4264 5.08789 21.0122V16.8656C7.59945 14.8819 9.7632 15.9516 12.2551 17.1853C13.7926 17.9456 15.4482 18.765 17.2238 18.765C18.5298 18.765 19.8995 18.3197 21.332 17.0775C21.4952 16.936 21.5895 16.731 21.5907 16.515V5.26221C21.59 4.9682 21.4176 4.70171 21.1497 4.58059C20.8818 4.45946 20.5678 4.50603 20.3466 4.69971C17.7216 6.97127 15.4979 5.87064 12.9207 4.59471C10.2507 3.27096 7.22352 1.77377 3.84664 4.69971ZM20.0879 16.1606C17.5763 18.1444 15.4126 17.0738 12.9207 15.841C10.577 14.6831 7.96977 13.3913 5.08789 15.0535V5.61752C7.59945 3.63377 9.7632 4.70346 12.2551 5.93627C14.5988 7.09408 17.207 8.38596 20.0879 6.72377V16.1606Z" fill="#121417"/>
</g>
<defs>
<clipPath id="clip0_59_1268">
<rect width="24" height="24" fill="white" transform="translate(0.587891 0.762207)"/>
</clipPath>
</defs>
</svg>
