<svg width="72" height="72" viewBox="0 0 72 72" fill="none" xmlns="http://www.w3.org/2000/svg">
<rect width="72" height="72" rx="36" fill="#9BB068"/>
<path fill-rule="evenodd" clip-rule="evenodd" d="M47.5558 24.6851C48.6478 24.2328 49.8181 24 51 24C52.1819 24 53.3522 24.2328 54.4442 24.6851C55.5361 25.1374 56.5282 25.8003 57.364 26.636C58.1997 27.4718 58.8626 28.4639 59.3149 29.5558C59.7672 30.6478 60 31.8181 60 33C60 34.6569 58.6569 36 57 36C55.3431 36 54 34.6569 54 33C54 32.606 53.9224 32.2159 53.7716 31.852C53.6209 31.488 53.3999 31.1573 53.1213 30.8787C52.8427 30.6001 52.512 30.3791 52.1481 30.2284C51.7841 30.0776 51.394 30 51 30C50.606 30 50.2159 30.0776 49.8519 30.2284C49.488 30.3791 49.1573 30.6001 48.8787 30.8787C48.6001 31.1573 48.3791 31.488 48.2284 31.852C48.0776 32.2159 48 32.606 48 33C48 34.6569 46.6569 36 45 36C43.3431 36 42 34.6569 42 33C42 31.8181 42.2328 30.6478 42.6851 29.5559C43.1374 28.4639 43.8003 27.4718 44.636 26.636C45.4718 25.8003 46.4639 25.1374 47.5558 24.6851Z" fill="#3D4A26"/>
<path fill-rule="evenodd" clip-rule="evenodd" d="M51.2657 42.9843C52.8661 43.4131 53.8159 45.0582 53.387 46.6585C52.3615 50.4859 50.1017 53.868 46.9581 56.2802C43.8145 58.6923 39.9628 59.9998 36.0004 59.9998C32.038 59.9998 28.1863 58.6923 25.0427 56.2802C21.8991 53.868 19.6393 50.486 18.6137 46.6586C18.1849 45.0582 19.1346 43.4131 20.735 42.9843C22.3354 42.5555 23.9804 43.5052 24.4093 45.1056C25.093 47.6572 26.5995 49.9119 28.6952 51.52C30.791 53.1282 33.3588 53.9998 36.0004 53.9998C38.642 53.9998 41.2098 53.1282 43.3055 51.52C45.4012 49.9119 46.9078 47.6572 47.5915 45.1056C48.0203 43.5052 49.6653 42.5555 51.2657 42.9843Z" fill="#3D4A26"/>
<path fill-rule="evenodd" clip-rule="evenodd" d="M17.5558 24.6851C18.6478 24.2328 19.8181 24 21 24C22.1819 24 23.3522 24.2328 24.4442 24.6851C25.5361 25.1374 26.5282 25.8003 27.364 26.636C28.1997 27.4718 28.8626 28.4639 29.3149 29.5558C29.7672 30.6478 30 31.8181 30 33C30 34.6569 28.6569 36 27 36C25.3431 36 24 34.6569 24 33C24 32.606 23.9224 32.2159 23.7716 31.852C23.6209 31.488 23.3999 31.1573 23.1213 30.8787C22.8427 30.6001 22.512 30.3791 22.1481 30.2284C21.7841 30.0776 21.394 30 21 30C20.606 30 20.2159 30.0776 19.8519 30.2284C19.488 30.3791 19.1573 30.6001 18.8787 30.8787C18.6001 31.1573 18.3791 31.488 18.2284 31.852C18.0776 32.2159 18 32.606 18 33C18 34.6569 16.6569 36 15 36C13.3431 36 12 34.6569 12 33C12 31.8181 12.2328 30.6478 12.6851 29.5559C13.1374 28.4639 13.8003 27.4718 14.636 26.636C15.4718 25.8003 16.4639 25.1374 17.5558 24.6851Z" fill="#3D4A26"/>
</svg>
