<svg width="48" height="49" viewBox="0 0 48 49" fill="none" xmlns="http://www.w3.org/2000/svg">
<rect y="0.344727" width="48" height="48" rx="8" fill="#EBF8FF"/>
<path fill-rule="evenodd" clip-rule="evenodd" d="M20.25 13.8447C19.4216 13.8447 18.75 14.5163 18.75 15.3447V33.3447C18.75 34.1732 19.4216 34.8447 20.25 34.8447H27.75C28.5784 34.8447 29.25 34.1732 29.25 33.3447V15.3447C29.25 14.5163 28.5784 13.8447 27.75 13.8447H20.25ZM17.25 15.3447C17.25 13.6879 18.5931 12.3447 20.25 12.3447H27.75C29.4069 12.3447 30.75 13.6879 30.75 15.3447V33.3447C30.75 35.0016 29.4069 36.3447 27.75 36.3447H20.25C18.5931 36.3447 17.25 35.0016 17.25 33.3447V15.3447Z" fill="black"/>
<path fill-rule="evenodd" clip-rule="evenodd" d="M19.5 13.0947C19.5 12.6805 19.8358 12.3447 20.25 12.3447H21.375C21.6734 12.3447 21.9595 12.4633 22.1705 12.6742C22.3815 12.8852 22.5 13.1714 22.5 13.4697H25.5C25.5 13.1714 25.6185 12.8852 25.8295 12.6742C26.0405 12.4633 26.3266 12.3447 26.625 12.3447H27.75C28.1642 12.3447 28.5 12.6805 28.5 13.0947C28.5 13.5089 28.1642 13.8447 27.75 13.8447H26.9524C26.8859 14.102 26.7517 14.3393 26.5607 14.5304C26.2794 14.8117 25.8978 14.9697 25.5 14.9697H22.5C22.1022 14.9697 21.7206 14.8117 21.4393 14.5304C21.2483 14.3393 21.1141 14.102 21.0476 13.8447H20.25C19.8358 13.8447 19.5 13.5089 19.5 13.0947Z" fill="black"/>
</svg>
