<svg width="40" height="41" viewBox="0 0 40 41" fill="none" xmlns="http://www.w3.org/2000/svg">
<path d="M19.835 15.3387C18.9111 15.3387 18.008 15.6127 17.2399 16.1259C16.4717 16.6392 15.873 17.3687 15.5195 18.2223C15.1659 19.0758 15.0734 20.015 15.2537 20.9211C15.4339 21.8272 15.8788 22.6595 16.532 23.3128C17.1853 23.966 18.0176 24.4109 18.9237 24.5911C19.8298 24.7714 20.769 24.6789 21.6225 24.3253C22.4761 23.9718 23.2056 23.3731 23.7189 22.6049C24.2321 21.8368 24.5061 20.9337 24.5061 20.0098C24.5061 19.3964 24.3853 18.789 24.1505 18.2223C23.9158 17.6555 23.5717 17.1406 23.138 16.7069C22.7042 16.2731 22.1893 15.929 21.6225 15.6943C21.0558 15.4595 20.4484 15.3387 19.835 15.3387ZM38.5382 10.7242C38.5282 9.26963 38.2604 7.8284 37.7471 6.46744C37.369 5.47156 36.7841 4.56716 36.0309 3.81394C35.2776 3.06071 34.3732 2.47577 33.3774 2.09772C32.0164 1.5844 30.5752 1.31656 29.1207 1.30665C26.6909 1.1748 25.9752 1.1748 19.835 1.1748C13.6948 1.1748 12.9791 1.1748 10.5493 1.30665C9.09483 1.31656 7.6536 1.5844 6.29263 2.09772C5.29675 2.47577 4.39236 3.06071 3.63913 3.81394C2.8859 4.56716 2.30097 5.47156 1.92292 6.46744C1.40959 7.8284 1.14175 9.26963 1.13184 10.7242C1 13.1539 1 13.8696 1 20.0098C1 26.15 1 26.8657 1.13184 29.2955C1.15212 30.7551 1.4196 32.2007 1.92292 33.571C2.29929 34.5623 2.88374 35.4615 3.6369 36.2079C4.3869 36.9657 5.29323 37.5506 6.29263 37.9219C7.6536 38.4352 9.09483 38.7031 10.5493 38.713C12.9791 38.8448 13.6948 38.8448 19.835 38.8448C25.9752 38.8448 26.6909 38.8448 29.1207 38.713C30.5752 38.7031 32.0164 38.4352 33.3774 37.9219C34.3768 37.5506 35.2831 36.9657 36.0331 36.2079C36.7863 35.4615 37.3707 34.5623 37.7471 33.571C38.2599 32.2034 38.5277 30.7561 38.5382 29.2955C38.67 26.8657 38.67 26.15 38.67 20.0098C38.67 13.8696 38.67 13.1539 38.5382 10.7242ZM33.7541 25.7922C33.6936 26.9545 33.4456 28.0994 33.0195 29.1825C32.6539 30.0859 32.1103 30.9067 31.4211 31.5959C30.7319 32.2851 29.9111 32.8287 29.0076 33.1943C27.9143 33.5966 26.763 33.8192 25.5985 33.8535C24.1105 33.8535 23.715 33.8535 19.835 33.8535C15.955 33.8535 15.5595 33.8535 14.0715 33.8535C12.907 33.8192 11.7557 33.5966 10.6624 33.1943C9.72833 32.8472 8.88485 32.2935 8.19497 31.5745C7.51252 30.8988 6.98547 30.0825 6.6505 29.1825C6.2466 28.0902 6.03009 26.9376 6.01011 25.7733C6.01011 24.2854 6.01011 23.8898 6.01011 20.0098C6.01011 16.1298 6.01011 15.7343 6.01011 14.2463C6.03009 13.082 6.2466 11.9294 6.6505 10.8372C6.99759 9.90314 7.55133 9.05966 8.27031 8.36978C8.949 7.69101 9.76442 7.16451 10.6624 6.8253C11.7557 6.423 12.907 6.20038 14.0715 6.16608C15.5595 6.16608 15.955 6.16608 19.835 6.16608C23.715 6.16608 24.1105 6.16608 25.5985 6.16608C26.763 6.20038 27.9143 6.423 29.0076 6.8253C29.9417 7.1724 30.7852 7.72613 31.475 8.44512C32.1575 9.12082 32.6845 9.9371 33.0195 10.8372C33.4218 11.9305 33.6444 13.0818 33.6787 14.2463C33.6787 15.7343 33.6787 16.1298 33.6787 20.0098C33.6787 23.8898 33.8106 24.2854 33.7541 25.7733V25.7922ZM30.7405 11.7789C30.5162 11.1705 30.1626 10.618 29.7041 10.1595C29.2456 9.701 28.6931 9.34743 28.0847 9.12317C27.2493 8.83361 26.3695 8.69334 25.4855 8.70881C24.0164 8.70881 23.602 8.70881 19.835 8.70881C16.068 8.70881 15.6536 8.70881 14.1845 8.70881C13.296 8.71749 12.416 8.88328 11.5853 9.19852C10.9862 9.41259 10.4395 9.75172 9.98163 10.1934C9.52373 10.635 9.16509 11.1691 8.92954 11.7601C8.65601 12.5989 8.52238 13.4771 8.534 14.3593C8.534 15.8284 8.534 16.2428 8.534 20.0098C8.534 23.7768 8.534 24.1912 8.534 25.6603C8.55267 26.5478 8.71815 27.4261 9.02371 28.2595C9.24797 28.8679 9.60154 29.4204 10.06 29.8789C10.5185 30.3374 11.071 30.691 11.6794 30.9153C12.4831 31.2108 13.3287 31.3761 14.1845 31.405C15.6536 31.405 16.068 31.405 19.835 31.405C23.602 31.405 24.0164 31.405 25.4855 31.405C26.374 31.3963 27.254 31.2305 28.0847 30.9153C28.6931 30.691 29.2456 30.3374 29.7041 29.8789C30.1626 29.4204 30.5162 28.8679 30.7405 28.2595C31.0557 27.4288 31.2215 26.5488 31.2302 25.6603C31.2302 24.1912 31.2302 23.7768 31.2302 20.0098C31.2302 16.2428 31.2302 15.8284 31.2302 14.3593C31.2307 13.4699 31.0646 12.5883 30.7405 11.7601V11.7789ZM19.835 27.2048C18.891 27.2048 17.9563 27.0185 17.0845 26.6567C16.2126 26.2949 15.4206 25.7646 14.754 25.0963C14.0874 24.4279 13.5592 23.6346 13.1997 22.7618C12.8402 21.889 12.6564 20.9538 12.6589 20.0098C12.6589 18.586 13.0813 17.1942 13.8728 16.0105C14.6642 14.8269 15.789 13.9047 17.1048 13.3607C18.4206 12.8167 19.8682 12.6753 21.2644 12.9545C22.6606 13.2336 23.9426 13.9208 24.9481 14.9289C25.9536 15.937 26.6374 17.2208 26.9128 18.6177C27.1883 20.0146 27.0432 21.4619 26.4957 22.7763C25.9482 24.0907 25.0231 25.213 23.8374 26.0014C22.6517 26.7897 21.2588 27.2085 19.835 27.2048ZM27.369 14.2275C26.9526 14.1834 26.5673 13.9868 26.2873 13.6755C26.0072 13.3643 25.8523 12.9604 25.8523 12.5417C25.8523 12.123 26.0072 11.7192 26.2873 11.4079C26.5673 11.0967 26.9526 10.9001 27.369 10.856C27.7854 10.9001 28.1707 11.0967 28.4507 11.4079C28.7308 11.7192 28.8857 12.123 28.8857 12.5417C28.8857 12.9604 28.7308 13.3643 28.4507 13.6755C28.1707 13.9868 27.7854 14.1834 27.369 14.2275Z" fill="url(#paint0_linear_362_4713)"/>
<defs>
<linearGradient id="paint0_linear_362_4713" x1="4.29704" y1="5.17747" x2="28.9828" y2="37.7716" gradientUnits="userSpaceOnUse">
<stop stop-color="#674FFE"/>
<stop offset="0.237948" stop-color="#FF0066"/>
<stop offset="0.822081" stop-color="#EFAB5D"/>
</linearGradient>
</defs>
</svg>
