<svg width="48" height="49" viewBox="0 0 48 49" fill="none" xmlns="http://www.w3.org/2000/svg">
<rect y="0.344727" width="48" height="48" rx="8" fill="#EBF8FF"/>
<path d="M16 28.3447C15.4477 28.3447 15 28.7924 15 29.3447C15 29.897 15.4477 30.3447 16 30.3447V28.3447ZM23 30.3447C23.5523 30.3447 24 29.897 24 29.3447C24 28.7924 23.5523 28.3447 23 28.3447V30.3447ZM32.7071 27.0518C33.0976 26.6613 33.0976 26.0281 32.7071 25.6376C32.3166 25.2471 31.6834 25.2471 31.2929 25.6376L32.7071 27.0518ZM28 30.3447L27.2929 31.0518C27.6834 31.4424 28.3166 31.4424 28.7071 31.0518L28 30.3447ZM26.7071 27.6376C26.3166 27.2471 25.6834 27.2471 25.2929 27.6376C24.9024 28.0281 24.9024 28.6613 25.2929 29.0518L26.7071 27.6376ZM16 23.3447C15.4477 23.3447 15 23.7924 15 24.3447C15 24.897 15.4477 25.3447 16 25.3447V23.3447ZM27 25.3447C27.5523 25.3447 28 24.897 28 24.3447C28 23.7924 27.5523 23.3447 27 23.3447V25.3447ZM16 18.3447C15.4477 18.3447 15 18.7924 15 19.3447C15 19.897 15.4477 20.3447 16 20.3447V18.3447ZM27 20.3447C27.5523 20.3447 28 19.897 28 19.3447C28 18.7924 27.5523 18.3447 27 18.3447V20.3447ZM16 29.3447V30.3447H23V29.3447V28.3447H16V29.3447ZM32 26.3447L31.2929 25.6376L27.2929 29.6376L28 30.3447L28.7071 31.0518L32.7071 27.0518L32 26.3447ZM28 30.3447L28.7071 29.6376L26.7071 27.6376L26 28.3447L25.2929 29.0518L27.2929 31.0518L28 30.3447ZM16 24.3447V25.3447H27V24.3447V23.3447H16V24.3447ZM16 19.3447V20.3447H27V19.3447V18.3447H16V19.3447Z" fill="black"/>
</svg>
