<svg width="48" height="49" viewBox="0 0 48 49" fill="none" xmlns="http://www.w3.org/2000/svg">
<rect y="0.344727" width="48" height="48" rx="8" fill="#EBF8FF"/>
<path d="M24 33.3447C28.9706 33.3447 33 29.3153 33 24.3447C33 19.3742 28.9706 15.3447 24 15.3447C19.0294 15.3447 15 19.3742 15 24.3447C15 29.3153 19.0294 33.3447 24 33.3447Z" stroke="#343330" stroke-width="2" stroke-linecap="round" stroke-linejoin="round"/>
<path d="M20.625 23.5947C21.2463 23.5947 21.75 23.091 21.75 22.4697C21.75 21.8484 21.2463 21.3447 20.625 21.3447C20.0037 21.3447 19.5 21.8484 19.5 22.4697C19.5 23.091 20.0037 23.5947 20.625 23.5947Z" fill="#343330"/>
<path d="M27.375 23.5947C27.9963 23.5947 28.5 23.091 28.5 22.4697C28.5 21.8484 27.9963 21.3447 27.375 21.3447C26.7537 21.3447 26.25 21.8484 26.25 22.4697C26.25 23.091 26.7537 23.5947 27.375 23.5947Z" fill="#343330"/>
<path d="M27.75 26.5947C26.9719 27.94 25.6659 28.8447 24 28.8447C22.3341 28.8447 21.0281 27.94 20.25 26.5947" stroke="#343330" stroke-width="2" stroke-linecap="round" stroke-linejoin="round"/>
</svg>
