<svg width="24" height="24" viewBox="0 0 24 24" fill="none" xmlns="http://www.w3.org/2000/svg">
<path d="M19.5 11.25V6.75" stroke="#343330" stroke-width="2" stroke-linecap="round" stroke-linejoin="round"/>
<path d="M21.75 9H17.25" stroke="#343330" stroke-width="2" stroke-linecap="round" stroke-linejoin="round"/>
<path d="M15 3V6" stroke="#343330" stroke-width="2" stroke-linecap="round" stroke-linejoin="round"/>
<path d="M16.5 4.5H13.5" stroke="#343330" stroke-width="2" stroke-linecap="round" stroke-linejoin="round"/>
<path d="M19.7521 14.8296C19.175 14.9431 18.5881 15.0003 17.9999 15.0002C16.6697 14.9991 15.3563 14.7034 14.154 14.1344C12.9517 13.5653 11.8904 12.7371 11.0462 11.7091C10.2021 10.6811 9.5961 9.47891 9.27178 8.18889C8.94747 6.89886 8.9129 5.55302 9.17054 4.24805C7.86872 4.7241 6.70783 5.52048 5.79507 6.56367C4.88231 7.60685 4.24711 8.8632 3.94812 10.2167C3.64913 11.5702 3.69599 12.9772 4.08437 14.3078C4.47275 15.6384 5.19013 16.8497 6.17028 17.8299C7.15042 18.81 8.36172 19.5274 9.69233 19.9158C11.0229 20.3042 12.43 20.351 13.7835 20.052C15.137 19.753 16.3933 19.1178 17.4365 18.2051C18.4797 17.2923 19.2761 16.1314 19.7521 14.8296Z" stroke="#343330" stroke-width="2" stroke-linecap="round" stroke-linejoin="round"/>
</svg>
