<svg width="19" height="18" viewBox="0 0 19 18" fill="none" xmlns="http://www.w3.org/2000/svg">
<path fill-rule="evenodd" clip-rule="evenodd" d="M8.75 3C5.8505 3 3.5 5.3505 3.5 8.25C3.5 11.1495 5.8505 13.5 8.75 13.5C11.6495 13.5 14 11.1495 14 8.25C14 5.3505 11.6495 3 8.75 3ZM2 8.25C2 4.52208 5.02208 1.5 8.75 1.5C12.4779 1.5 15.5 4.52208 15.5 8.25C15.5 11.9779 12.4779 15 8.75 15C5.02208 15 2 11.9779 2 8.25Z" fill="black"/>
<path fill-rule="evenodd" clip-rule="evenodd" d="M12.457 11.957C12.7499 11.6641 13.2247 11.6641 13.5176 11.957L16.7801 15.2195C17.073 15.5124 17.073 15.9872 16.7801 16.2801C16.4872 16.573 16.0124 16.573 15.7195 16.2801L12.457 13.0176C12.1641 12.7247 12.1641 12.2499 12.457 11.957Z" fill="black"/>
</svg>
