<svg width="40" height="40" viewBox="0 0 40 40" fill="none" xmlns="http://www.w3.org/2000/svg">
<rect width="40" height="40" rx="20" fill="#F0F2F5"/>
<path d="M20 23.75C22.0711 23.75 23.75 22.0711 23.75 20C23.75 17.9289 22.0711 16.25 20 16.25C17.9289 16.25 16.25 17.9289 16.25 20C16.25 22.0711 17.9289 23.75 20 23.75Z" stroke="#343330" stroke-width="2" stroke-linecap="round" stroke-linejoin="round"/>
<path d="M11.8845 24.6959C11.4701 23.9821 11.1526 23.2163 10.9404 22.4187L12.5136 20.4499C12.4957 20.149 12.4957 19.8472 12.5136 19.5462L10.9414 17.5774C11.1532 16.7797 11.47 16.0136 11.8836 15.2993L14.3876 15.0181C14.5876 14.7928 14.8008 14.5796 15.0261 14.3796L15.3073 11.8765C16.0206 11.4649 16.7854 11.15 17.5817 10.9399L19.5504 12.5131C19.8514 12.4953 20.1532 12.4953 20.4542 12.5131L22.4229 10.9409C23.2207 11.1527 23.9867 11.4695 24.7011 11.8831L24.9823 14.3871C25.2076 14.5871 25.4208 14.8003 25.6207 15.0256L28.1239 15.3068C28.5383 16.0206 28.8557 16.7864 29.0679 17.584L27.4948 19.5528C27.5126 19.8537 27.5126 20.1555 27.4948 20.4565L29.067 22.4253C28.8567 23.2228 28.5414 23.9888 28.1295 24.7034L25.6254 24.9846C25.4255 25.2099 25.2123 25.4231 24.987 25.6231L24.7057 28.1262C23.992 28.5406 23.2262 28.8581 22.4286 29.0703L20.4598 27.4971C20.1588 27.5149 19.857 27.5149 19.5561 27.4971L17.5873 29.0693C16.7898 28.859 16.0237 28.5437 15.3092 28.1318L15.0279 25.6278C14.8026 25.4278 14.5895 25.2146 14.3895 24.9893L11.8845 24.6959Z" stroke="#343330" stroke-width="2" stroke-linecap="round" stroke-linejoin="round"/>
</svg>
