<svg width="25" height="25" viewBox="0 0 25 25" fill="none" xmlns="http://www.w3.org/2000/svg">
<g clip-path="url(#clip0_59_1260)">
<path fill-rule="evenodd" clip-rule="evenodd" d="M22.7879 18.3956L14.5895 4.15783C14.1726 3.44807 13.411 3.01215 12.5879 3.01215C11.7648 3.01215 11.0032 3.44807 10.5863 4.15783L2.38789 18.3956C1.98655 19.0826 1.98655 19.9325 2.38789 20.6194C2.79968 21.3339 3.56482 21.7708 4.38945 21.7622H20.7863C21.6103 21.7701 22.3746 21.3333 22.786 20.6194C23.1879 19.9328 23.1887 19.0829 22.7879 18.3956ZM21.4876 19.8685C21.3421 20.1167 21.074 20.2672 20.7863 20.2622H4.38945C4.10176 20.2672 3.83372 20.1167 3.6882 19.8685C3.55635 19.6452 3.55635 19.3679 3.6882 19.1447L11.8866 4.90689C12.035 4.66008 12.3018 4.50911 12.5898 4.50911C12.8777 4.50911 13.1446 4.66008 13.2929 4.90689L21.4913 19.1447C21.622 19.3686 21.6206 19.6459 21.4876 19.8685ZM11.8379 14.2622V10.5122C11.8379 10.098 12.1737 9.76221 12.5879 9.76221C13.0021 9.76221 13.3379 10.098 13.3379 10.5122V14.2622C13.3379 14.6764 13.0021 15.0122 12.5879 15.0122C12.1737 15.0122 11.8379 14.6764 11.8379 14.2622ZM13.7129 17.6372C13.7129 18.2585 13.2092 18.7622 12.5879 18.7622C11.9666 18.7622 11.4629 18.2585 11.4629 17.6372C11.4629 17.0159 11.9666 16.5122 12.5879 16.5122C13.2092 16.5122 13.7129 17.0159 13.7129 17.6372Z" fill="#121417"/>
</g>
<defs>
<clipPath id="clip0_59_1260">
<rect width="24" height="24" fill="white" transform="translate(0.587891 0.762207)"/>
</clipPath>
</defs>
</svg>
