<svg width="41" height="41" viewBox="0 0 41 41" fill="none" xmlns="http://www.w3.org/2000/svg">
<path d="M20.9004 40.1748C31.9461 40.1748 40.9004 31.2205 40.9004 20.1748C40.9004 9.12911 31.9461 0.174805 20.9004 0.174805C9.8547 0.174805 0.900391 9.12911 0.900391 20.1748C0.900391 31.2205 9.8547 40.1748 20.9004 40.1748Z" fill="url(#paint0_linear_389_1543)"/>
<path fill-rule="evenodd" clip-rule="evenodd" d="M9.95407 19.9637C15.7845 17.4235 19.6723 15.7488 21.6176 14.9397C27.1718 12.6295 28.326 12.2282 29.0782 12.215C29.2436 12.2121 29.6136 12.2531 29.8532 12.4475C30.0555 12.6117 30.1112 12.8335 30.1378 12.9891C30.1645 13.1448 30.1977 13.4994 30.1713 13.7765C29.8703 16.9389 28.5679 24.6134 27.9054 28.1554C27.625 29.6542 27.073 30.1567 26.5386 30.2059C25.3771 30.3128 24.4952 29.4383 23.3703 28.701C21.61 27.5471 20.6156 26.8288 18.9069 25.7028C16.9323 24.4016 18.2124 23.6864 19.3377 22.5176C19.6322 22.2117 24.7495 17.5571 24.8486 17.1349C24.861 17.082 24.8725 16.8852 24.7555 16.7813C24.6386 16.6773 24.466 16.7129 24.3414 16.7411C24.1649 16.7812 21.3529 18.6398 15.9053 22.3171C15.1071 22.8652 14.3842 23.1322 13.7364 23.1182C13.0223 23.1028 11.6486 22.7145 10.6275 22.3825C9.37498 21.9754 8.37952 21.7601 8.4662 21.0687C8.51135 20.7085 9.00731 20.3402 9.95407 19.9637Z" fill="white"/>
<defs>
<linearGradient id="paint0_linear_389_1543" x1="20.9004" y1="0.174805" x2="20.9004" y2="39.8781" gradientUnits="userSpaceOnUse">
<stop stop-color="#2AABEE"/>
<stop offset="1" stop-color="#229ED9"/>
</linearGradient>
</defs>
</svg>
