<svg width="41" height="41" viewBox="0 0 41 41" fill="none" xmlns="http://www.w3.org/2000/svg">
<path d="M28.9288 14.6141C31.501 16.4594 34.6522 17.5451 38.0555 17.5451V10.9727C37.4115 10.9728 36.769 10.9054 36.1389 10.7714V15.9449C32.7358 15.9449 29.585 14.8591 27.0121 13.014V26.4264C27.0121 33.136 21.5922 38.5748 14.9069 38.5748C12.4124 38.5748 10.0939 37.818 8.16797 36.52C10.3662 38.7757 13.4317 40.1749 16.8232 40.1749C23.5089 40.1749 28.9291 34.7361 28.9291 28.0263V14.6141H28.9288ZM31.2932 7.98329C29.9787 6.54201 29.1155 4.67943 28.9288 2.62026V1.7749H27.1125C27.5697 4.3921 29.1291 6.62808 31.2932 7.98329ZM12.3964 31.3713C11.662 30.4049 11.2651 29.2226 11.2669 28.007C11.2669 24.9383 13.7459 22.4502 16.8043 22.4502C17.3743 22.45 17.9409 22.5376 18.4841 22.7106V15.9913C17.8493 15.9039 17.2086 15.8669 16.5682 15.8805V21.1105C16.0246 20.9375 15.4578 20.8496 14.8876 20.8502C11.8292 20.8502 9.35032 23.3381 9.35032 26.4072C9.35032 28.5773 10.5894 30.4561 12.3964 31.3713Z" fill="#FF004F"/>
<path d="M27.0111 13.0138C29.584 14.859 32.7347 15.9447 36.1378 15.9447V10.7713C34.2382 10.3652 32.5566 9.36897 31.2922 7.98329C29.1279 6.62795 27.5686 4.39197 27.1114 1.7749H22.3404V28.026C22.3296 31.0863 19.8549 33.5643 16.803 33.5643C15.0046 33.5643 13.4069 32.704 12.395 31.3713C10.5881 30.4561 9.34901 28.5772 9.34901 26.4073C9.34901 23.3385 11.8279 20.8503 14.8863 20.8503C15.4723 20.8503 16.0371 20.9419 16.5669 21.1106V15.8806C9.99898 16.0168 4.7168 21.4025 4.7168 28.0261C4.7168 31.3326 6.03218 34.3301 8.16707 36.5202C10.093 37.818 12.4115 38.575 14.906 38.575C21.5915 38.575 27.0112 33.1359 27.0112 26.4264V13.0138H27.0111Z" fill="black"/>
<path d="M36.1383 10.7711V9.37228C34.4254 9.37489 32.746 8.89345 31.2927 7.98303C32.5792 9.39658 34.2733 10.3712 36.1383 10.7711ZM27.1119 1.77478C27.0683 1.52466 27.0348 1.27289 27.0116 1.02016V0.174805H20.4241V26.4262C20.4136 29.4861 17.939 31.9641 14.8868 31.9641C13.9908 31.9641 13.1448 31.7506 12.3955 31.3713C13.4074 32.7039 15.0051 33.5641 16.8035 33.5641C19.8551 33.5641 22.3303 31.0863 22.341 28.026V1.77478H27.1119ZM16.5677 15.8805V14.3913C16.0172 14.3158 15.4623 14.2779 14.9067 14.2782C8.22064 14.278 2.80078 19.7171 2.80078 26.4262C2.80078 30.6324 4.93088 34.3393 8.16773 36.5198C6.03285 34.3298 4.71746 31.3322 4.71746 28.0259C4.71746 21.4023 9.99951 16.0167 16.5677 15.8805Z" fill="#00F2EA"/>
</svg>
