<svg width="41" height="41" viewBox="0 0 41 41" fill="none" xmlns="http://www.w3.org/2000/svg">
<path d="M24.6992 0.174805H16.6992C9.15675 0.174805 5.38551 0.174805 3.04236 2.51795C0.699219 4.8611 0.699219 8.63233 0.699219 16.1748V24.1748C0.699219 31.7173 0.699219 35.4885 3.04236 37.8317C5.38551 40.1748 9.15675 40.1748 16.6992 40.1748H24.6992C32.2417 40.1748 36.0129 40.1748 38.3561 37.8317C40.6992 35.4885 40.6992 31.7173 40.6992 24.1748V16.1748C40.6992 8.63233 40.6992 4.8611 38.3561 2.51795C36.0129 0.174805 32.2417 0.174805 24.6992 0.174805Z" fill="#020000"/>
<path d="M11.127 9.1748H16.9908L30.673 30.6747H24.8092L11.127 9.1748Z" stroke="white" stroke-width="2" stroke-linecap="round" stroke-linejoin="round"/>
<path d="M19.175 21.8218L11.127 30.6746" stroke="white" stroke-width="2" stroke-linecap="round" stroke-linejoin="round"/>
<path d="M30.6711 9.1748L22.623 18.0276" stroke="white" stroke-width="2" stroke-linecap="round" stroke-linejoin="round"/>
</svg>
