<svg width="41" height="41" viewBox="0 0 41 41" fill="none" xmlns="http://www.w3.org/2000/svg">
<g clip-path="url(#clip0_362_4688)">
<path d="M39.3023 10.484C39.0762 9.63301 38.6305 8.85635 38.0099 8.23174C37.3892 7.60714 36.6155 7.15649 35.7659 6.92489C32.6387 6.08398 20.1387 6.08398 20.1387 6.08398C20.1387 6.08398 7.63867 6.08398 4.5114 6.92489C3.66189 7.15649 2.8881 7.60714 2.26748 8.23174C1.64687 8.85635 1.20118 9.63301 0.975036 10.484C0.138672 13.6249 0.138672 20.1749 0.138672 20.1749C0.138672 20.1749 0.138672 26.7249 0.975036 29.8658C1.20118 30.7168 1.64687 31.4934 2.26748 32.118C2.8881 32.7426 3.66189 33.1933 4.5114 33.4249C7.63867 34.2658 20.1387 34.2658 20.1387 34.2658C20.1387 34.2658 32.6387 34.2658 35.7659 33.4249C36.6155 33.1933 37.3892 32.7426 38.0099 32.118C38.6305 31.4934 39.0762 30.7168 39.3023 29.8658C40.1387 26.7249 40.1387 20.1749 40.1387 20.1749C40.1387 20.1749 40.1387 13.6249 39.3023 10.484Z" fill="#FF0302"/>
<path d="M16.0488 26.1225V14.2271L26.5034 20.1748L16.0488 26.1225Z" fill="#FEFEFE"/>
</g>
<defs>
<clipPath id="clip0_362_4688">
<rect width="40" height="40" fill="white" transform="translate(0.0996094 0.174805)"/>
</clipPath>
</defs>
</svg>
