<svg width="24" height="25" viewBox="0 0 24 25" fill="none" xmlns="http://www.w3.org/2000/svg">
<path d="M8.25 22.1001H15.75" stroke="#343330" stroke-width="2" stroke-linecap="round" stroke-linejoin="round"/>
<path d="M7.37824 16.0064C6.48665 15.3099 5.76449 14.4204 5.266 13.4047C4.76751 12.3891 4.50566 11.2737 4.50012 10.1423C4.47762 6.07729 7.75512 2.69385 11.8192 2.6001C13.3942 2.56195 14.9412 3.02076 16.2408 3.91142C17.5403 4.80208 18.5264 6.07937 19.0591 7.56205C19.5918 9.04474 19.644 10.6575 19.2084 12.1716C18.7728 13.6856 17.8715 15.0241 16.6323 15.997C16.359 16.2089 16.1375 16.4803 15.9846 16.7905C15.8318 17.1008 15.7516 17.4417 15.7501 17.7876V18.3501C15.7501 18.549 15.6711 18.7398 15.5304 18.8804C15.3898 19.0211 15.199 19.1001 15.0001 19.1001H9.00012C8.8012 19.1001 8.61044 19.0211 8.46979 18.8804C8.32913 18.7398 8.25012 18.549 8.25012 18.3501V17.7876C8.24976 17.444 8.17104 17.1049 8.01996 16.7963C7.86888 16.4876 7.64941 16.2174 7.37824 16.0064Z" stroke="#343330" stroke-width="2" stroke-linecap="round" stroke-linejoin="round"/>
<path d="M12.75 5.6001C14.625 5.91604 16.1822 7.4751 16.5 9.3501" stroke="#343330" stroke-width="2" stroke-linecap="round" stroke-linejoin="round"/>
</svg>
