<svg width="24" height="24" viewBox="0 0 24 24" fill="none" xmlns="http://www.w3.org/2000/svg">
<path fill-rule="evenodd" clip-rule="evenodd" d="M7.29289 16.2929C7.68342 15.9024 8.31658 15.9024 8.70711 16.2929L12 19.5858L15.2929 16.2929C15.6834 15.9024 16.3166 15.9024 16.7071 16.2929C17.0976 16.6834 17.0976 17.3166 16.7071 17.7071L12.7071 21.7071C12.3166 22.0976 11.6834 22.0976 11.2929 21.7071L7.29289 17.7071C6.90237 17.3166 6.90237 16.6834 7.29289 16.2929Z" fill="#1A202C"/>
<path fill-rule="evenodd" clip-rule="evenodd" d="M12 11C12.5523 11 13 11.4477 13 12V21C13 21.5523 12.5523 22 12 22C11.4477 22 11 21.5523 11 21V12C11 11.4477 11.4477 11 12 11Z" fill="#1A202C"/>
<path fill-rule="evenodd" clip-rule="evenodd" d="M8.66679 1.9941C10.0273 1.94517 11.3811 2.20552 12.6264 2.75554C13.8717 3.30556 14.976 4.13092 15.8562 5.16948C16.5667 6.00784 17.1162 6.96749 17.4796 7.99993L17.9984 7.99993C19.2735 7.9991 20.5166 8.40453 21.5457 9.15741C22.5751 9.91044 23.3377 10.9719 23.7229 12.1877C24.1081 13.4036 24.0959 14.7105 23.688 15.9189C23.2801 17.1273 22.4977 18.1743 21.4544 18.9079C21.0026 19.2256 20.3789 19.1169 20.0612 18.6652C19.7435 18.2134 19.8522 17.5896 20.304 17.2719C20.9995 16.7828 21.5211 16.0849 21.793 15.2793C22.065 14.4736 22.0731 13.6023 21.8163 12.7918C21.5595 11.9812 21.0511 11.2736 20.3648 10.7716C19.6786 10.2696 18.8502 9.99927 18 9.99993H16.7392C16.2826 9.99993 15.8841 9.69071 15.7706 9.24848C15.5074 8.22287 15.015 7.27032 14.3304 6.46255C13.6459 5.65478 12.787 5.01283 11.8184 4.58504C10.8498 4.15724 9.79682 3.95475 8.73867 3.9928C7.68051 4.03086 6.64478 4.30846 5.70944 4.80472C4.7741 5.30099 3.96353 6.00297 3.33874 6.85783C2.71396 7.71269 2.29125 8.69814 2.10243 9.74001C1.91362 10.7819 1.96361 11.853 2.24866 12.8727C2.53371 13.8925 3.04638 14.8343 3.74808 15.6272C4.11408 16.0408 4.0755 16.6728 3.66191 17.0388C3.24831 17.4048 2.61632 17.3662 2.25032 16.9526C1.34814 15.9331 0.688989 14.7223 0.322499 13.4112C-0.0439923 12.1001 -0.108275 10.7229 0.13449 9.38336C0.377255 8.04382 0.92074 6.7768 1.72403 5.6777C2.52732 4.57859 3.56949 3.67604 4.77207 3.03799C5.97465 2.39994 7.30631 2.04302 8.66679 1.9941Z" fill="#1A202C"/>
</svg>
