<svg width="48" height="48" viewBox="0 0 48 48" fill="none" xmlns="http://www.w3.org/2000/svg">
<rect width="48" height="48" rx="8" fill="#CBD5E0"/>
<g clip-path="url(#clip0_12_169)">
<path fill-rule="evenodd" clip-rule="evenodd" d="M32.25 15.75H15.75C14.9216 15.75 14.25 16.4216 14.25 17.25V30.75C14.25 31.5784 14.9216 32.25 15.75 32.25H32.25C33.0784 32.25 33.75 31.5784 33.75 30.75V17.25C33.75 16.4216 33.0784 15.75 32.25 15.75ZM32.25 30.75H15.75V17.25H32.25V30.75ZM19.5 19.875C19.5 20.4963 18.9963 21 18.375 21C17.7537 21 17.25 20.4963 17.25 19.875C17.25 19.2537 17.7537 18.75 18.375 18.75C18.9963 18.75 19.5 19.2537 19.5 19.875ZM23.25 19.875C23.25 20.4963 22.7463 21 22.125 21C21.5037 21 21 20.4963 21 19.875C21 19.2537 21.5037 18.75 22.125 18.75C22.7463 18.75 23.25 19.2537 23.25 19.875Z" fill="#0D141C"/>
</g>
<defs>
<clipPath id="clip0_12_169">
<rect width="24" height="24" fill="white" transform="translate(12 12)"/>
</clipPath>
</defs>
</svg>
