<svg width="40" height="40" viewBox="0 0 40 40" fill="none" xmlns="http://www.w3.org/2000/svg">
<rect width="40" height="40" rx="20" fill="#F0F2F5"/>
<path fill-rule="evenodd" clip-rule="evenodd" d="M15.0503 11.0503C16.3631 9.7375 18.1436 9 20.0001 9C21.8566 9 23.6371 9.7375 24.9498 11.0503C26.2626 12.363 27.0001 14.1435 27.0001 16C27.0001 19.3527 27.7171 21.4346 28.378 22.6461C28.7098 23.2544 29.0329 23.6535 29.2573 23.8904C29.3698 24.0091 29.4581 24.0878 29.5114 24.1322C29.538 24.1544 29.5558 24.168 29.5635 24.1737C29.5647 24.1746 29.5657 24.1753 29.5664 24.1758C29.9249 24.4221 30.0835 24.8725 29.9572 25.2898C29.8295 25.7115 29.4407 26 29.0001 26H11.0001C10.5594 26 10.1707 25.7115 10.043 25.2898C9.91664 24.8725 10.0753 24.4221 10.4338 24.1758C10.4345 24.1753 10.4354 24.1746 10.4366 24.1737C10.4443 24.168 10.4622 24.1544 10.4888 24.1322C10.542 24.0878 10.6304 24.0091 10.7429 23.8904C10.9673 23.6535 11.2904 23.2544 11.6222 22.6461C12.283 21.4346 13.0001 19.3527 13.0001 16C13.0001 14.1435 13.7376 12.363 15.0503 11.0503ZM10.4439 24.169C10.444 24.1689 10.444 24.1688 10.4441 24.1688C10.4441 24.1688 10.4441 24.1688 10.4441 24.1688L10.4439 24.169ZM13.1494 24H26.8508C26.7747 23.8753 26.6983 23.7434 26.6222 23.6039C25.783 22.0654 25.0001 19.6473 25.0001 16C25.0001 14.6739 24.4733 13.4021 23.5356 12.4645C22.5979 11.5268 21.3262 11 20.0001 11C18.674 11 17.4022 11.5268 16.4645 12.4645C15.5269 13.4021 15.0001 14.6739 15.0001 16C15.0001 19.6473 14.2171 22.0654 13.378 23.6039C13.3019 23.7434 13.2255 23.8753 13.1494 24Z" fill="black"/>
<path fill-rule="evenodd" clip-rule="evenodd" d="M17.7679 28.1352C18.2457 27.858 18.8576 28.0207 19.1347 28.4984C19.2226 28.6499 19.3488 28.7757 19.5006 28.8632C19.6524 28.9506 19.8245 28.9966 19.9997 28.9966C20.1749 28.9966 20.347 28.9506 20.4988 28.8632C20.6506 28.7757 20.7768 28.6499 20.8647 28.4984C21.1418 28.0207 21.7537 27.858 22.2315 28.1352C22.7092 28.4123 22.8718 29.0242 22.5947 29.5019C22.331 29.9566 21.9525 30.3339 21.497 30.5962C21.0416 30.8586 20.5253 30.9966 19.9997 30.9966C19.4741 30.9966 18.9578 30.8586 18.5024 30.5962C18.0469 30.3339 17.6684 29.9566 17.4047 29.5019C17.1276 29.0242 17.2902 28.4123 17.7679 28.1352Z" fill="black"/>
</svg>
